<svg id="Layer_1" data-name="Layer 1" xmlns="http://www.w3.org/2000/svg" viewBox="0 0 712.58 522.32"><defs><style>.cls-1{fill:#f4f5f9;}.cls-2{fill:#ed6f98;}.cls-3{fill:#d35985;}.cls-4{fill:#f4e1e8;}.cls-5{fill:#4696ec;}.cls-6{fill:#2e7abf;}.cls-7{fill:#4154af;}.cls-8{fill:#304799;}.cls-10,.cls-9{isolation:isolate;}.cls-10{font-size:22px;fill:#fff;font-family:ArialMT, Arial;}</style></defs><title>covid-19-free-02</title><path class="cls-1" d="M358.31,600H0V333H319.2a39.11,39.11,0,0,1,39.11,39.11V600Z" transform="translate(0 -77.7)"/><rect class="cls-1" x="423.94" width="132.49" height="132.49" rx="15.41"/><rect class="cls-1" x="580.09" width="132.49" height="132.49" rx="15.41"/><rect class="cls-1" x="423.94" y="156.06" width="132.49" height="132.49" rx="15.41"/><rect class="cls-1" x="580.09" y="156.05" width="132.49" height="132.49" rx="15.41"/><rect class="cls-1" x="423.94" y="312.11" width="132.49" height="132.49" rx="15.41"/><rect class="cls-1" x="580.08" y="312.1" width="132.49" height="132.49" rx="15.41"/><path class="cls-2" d="M532.17,156.34a2.79,2.79,0,0,0-3.41-1.91h0l-2.16.86a1.13,1.13,0,0,1-1.29-.31,11.14,11.14,0,0,0-3.77-2.86,2.77,2.77,0,0,1-1.65-2.53V148c0-.92-1.37-1.67-3-1.67s-3,.75-3,1.67v1.57a2.77,2.77,0,0,1-1.63,2.52,11,11,0,0,0-3.37,2.4L506,152.44h0c-.38-.28-1.22.22-1.88,1.12s-.9,1.84-.53,2.12l3,2.2a11.12,11.12,0,0,0-.89,4.37v.34a2.76,2.76,0,0,1-1.73,2.63l-1.41.57c-1.24.49-1.74,2.17-1.11,3.73s2.14,2.42,3.38,1.93l2.27-.92a2.76,2.76,0,0,1,2.76.42,11.14,11.14,0,0,0,7,2.48,12.21,12.21,0,0,0,2-.2l1.06,2.3c.53,1.15,2.2,1.51,3.73.81s2.34-2.21,1.81-3.36l-.36-.79a2.78,2.78,0,0,1,.38-2.91,11.1,11.1,0,0,0,2.5-7h0a1.39,1.39,0,0,1,.88-1.29l2.15-.87A2.84,2.84,0,0,0,532.17,156.34Z" transform="translate(0 -77.7)"/><circle class="cls-3" cx="520.85" cy="86.46" r="2.53"/><path class="cls-3" d="M510.79,161.46a2.5,2.5,0,1,1-.67,2.93A2.17,2.17,0,0,1,510.79,161.46Z" transform="translate(0 -77.7)"/><ellipse class="cls-3" cx="516.84" cy="70.32" rx="1.52" ry="0.82"/><ellipse class="cls-3" cx="529.9" cy="157.25" rx="1.34" ry="1.52" transform="translate(-20.42 131.2) rotate(-21.89)"/><ellipse class="cls-3" cx="522.72" cy="174.29" rx="1.52" ry="1.08" transform="translate(-24.93 157.34) rotate(-24.77)"/><ellipse class="cls-3" cx="503.67" cy="168.61" rx="1.27" ry="1.52" transform="matrix(0.93, -0.37, 0.37, 0.93, -26.56, 122.14)"/><ellipse class="cls-3" cx="504.81" cy="154.09" rx="1" ry="0.29" transform="translate(80.18 389.86) rotate(-53.41)"/><ellipse class="cls-3" cx="516.86" cy="158.37" rx="1.68" ry="1.51" transform="translate(-4.35 -62.75) rotate(-1.65)"/><path class="cls-3" d="M507,160.11h-.1a.29.29,0,0,1-.18-.37h0a1.53,1.53,0,0,0-.52-1.73l-1.38-1a.29.29,0,0,1-.06-.41h0a.3.3,0,0,1,.41-.06l1.38,1a2.1,2.1,0,0,1,.72,2.39A.28.28,0,0,1,507,160.11Z" transform="translate(0 -77.7)"/><path class="cls-3" d="M509.83,155.16a2,2,0,0,1-1.23-.42.3.3,0,0,1,0-.41.29.29,0,0,1,.41-.05h0a1.41,1.41,0,0,0,1.45.16l.62-.3a.3.3,0,0,1,.39.13h0a.3.3,0,0,1-.13.39h0l-.61.3A2,2,0,0,1,509.83,155.16Z" transform="translate(0 -77.7)"/><path class="cls-3" d="M519.06,173.89a.32.32,0,0,1-.28-.19l-.44-1.12a3,3,0,0,0-2.45-1.74l-1.06-.09a.29.29,0,0,1-.26-.32h0a.3.3,0,0,1,.31-.27l1.06.09a3.55,3.55,0,0,1,2.94,2.1l.45,1.13a.3.3,0,0,1-.16.39Z" transform="translate(0 -77.7)"/><path class="cls-3" d="M525.5,164h-.07a.28.28,0,0,1-.22-.35h0l.08-.29a3.3,3.3,0,0,1,2.19-2.36l1.34-.3a.29.29,0,0,1,.35.22h0a.28.28,0,0,1-.2.34h0l-1.31.3a2.69,2.69,0,0,0-1.78,1.93l-.07.29A.31.31,0,0,1,525.5,164Z" transform="translate(0 -77.7)"/><path class="cls-2" d="M497.62,140.66a4.17,4.17,0,0,1-3.08-3.73,19.34,19.34,0,0,0-2-7.45l4.12-3.15-5.05-6.62L487.32,123h0a19.5,19.5,0,0,0-6.68-3.56,4.28,4.28,0,0,1-3.08-4.06V112.5h-6.1v3.14a4.22,4.22,0,0,1-2.86,4,19.58,19.58,0,0,0-7.5,4.65l-3.31-2.51-3.85,5.07,3.41,2.58a19.9,19.9,0,0,0-2,7.16c0,.36-.05.71-.06,1.06a4.25,4.25,0,0,1-3,3.94l-3.8,1.19,1.84,5.82,3.45-1.09a4.24,4.24,0,0,1,4.8,1.72c.35.51.71,1,1.1,1.47a2.75,2.75,0,0,1,0,3.45l5.06,4.07.47-.59a2.69,2.69,0,0,1,3-.87,19.43,19.43,0,0,0,5,1.09h0a4.33,4.33,0,0,1,3.87,3.34l.53,2.33,5.93-1.39-.55-2.42a4.22,4.22,0,0,1,1.95-4.59,19.86,19.86,0,0,0,6.66-6.58,4.22,4.22,0,0,1,4.73-1.85l3.33,1,1.64-5.87Z" transform="translate(0 -77.7)"/><ellipse class="cls-2" cx="474.51" cy="34.77" rx="3.05" ry="1.27"/><ellipse class="cls-2" cx="494.12" cy="123.02" rx="3.02" ry="4.16" transform="translate(26.69 247.3) rotate(-37.35)"/><ellipse class="cls-2" cx="500.57" cy="144.73" rx="3.05" ry="1.27" transform="translate(226.71 510.34) rotate(-74.42)"/><ellipse class="cls-2" cx="480.66" cy="162.81" rx="3.05" ry="1.27" transform="translate(-24.45 36.1) rotate(-13.17)"/><ellipse class="cls-2" cx="462.27" cy="156.13" rx="2.48" ry="3.24" transform="matrix(0.63, -0.78, 0.78, 0.63, 51.02, 341)"/><ellipse class="cls-2" cx="449.44" cy="145.7" rx="1.27" ry="3.05" transform="translate(-23.01 63.94) rotate(-17.47)"/><ellipse class="cls-2" cx="455.89" cy="124.3" rx="3.18" ry="2.85" transform="translate(81.5 334.91) rotate(-52.85)"/><circle class="cls-3" cx="483.62" cy="66.09" r="3.89"/><ellipse class="cls-3" cx="478.47" cy="130.78" rx="1.62" ry="2.39" transform="translate(112.19 387.57) rotate(-57.69)"/><ellipse class="cls-3" cx="468.02" cy="134.79" rx="1.47" ry="1.28" transform="translate(117.28 395.01) rotate(-60)"/><ellipse class="cls-3" cx="474.51" cy="34.77" rx="1.52" ry="0.44"/><ellipse class="cls-3" cx="494.12" cy="123.02" rx="1.5" ry="2.07" transform="translate(26.69 247.3) rotate(-37.35)"/><ellipse class="cls-3" cx="500.57" cy="144.73" rx="1.52" ry="0.44" transform="translate(226.71 510.34) rotate(-74.42)"/><ellipse class="cls-3" cx="480.66" cy="162.81" rx="1.52" ry="0.44" transform="translate(-24.45 36.1) rotate(-13.17)"/><ellipse class="cls-3" cx="462.27" cy="156.13" rx="1.12" ry="1.61" transform="translate(51.02 341) rotate(-51.22)"/><ellipse class="cls-3" cx="467.47" cy="147.1" rx="2.84" ry="3.12" transform="matrix(0.63, -0.78, 0.78, 0.63, 60.01, 341.68)"/><ellipse class="cls-3" cx="449.44" cy="145.7" rx="0.44" ry="1.52" transform="translate(-23.01 63.94) rotate(-17.47)"/><ellipse class="cls-3" cx="455.89" cy="124.3" rx="1.58" ry="1.52" transform="translate(81.5 334.91) rotate(-52.85)"/><path class="cls-3" d="M458.64,133.07h-.19a.59.59,0,0,1-.37-.74,1.91,1.91,0,0,0-.79-2.24l-.25-.16-2-1.49a.58.58,0,0,1-.12-.81h0a.59.59,0,0,1,.82-.12l2.14,1.59a3.12,3.12,0,0,1,1.28,3.61A.57.57,0,0,1,458.64,133.07Z" transform="translate(0 -77.7)"/><path class="cls-3" d="M463.36,126a2.86,2.86,0,0,1-1.69-.56l-.92-.67a.59.59,0,1,1,.7-1h0l.92.67a1.65,1.65,0,0,0,2.17-.16.6.6,0,0,1,.84,0,.59.59,0,0,1,0,.83A2.83,2.83,0,0,1,463.36,126Z" transform="translate(0 -77.7)"/><path class="cls-3" d="M491.36,134a.58.58,0,0,1-.56-.42,4.23,4.23,0,0,1,1.49-4.63l1.47-1.11a.59.59,0,0,1,.83.11h0a.6.6,0,0,1-.12.83L493,129.84a3.07,3.07,0,0,0-1.08,3.35.57.57,0,0,1-.36.72h0A.58.58,0,0,1,491.36,134Z" transform="translate(0 -77.7)"/><path class="cls-3" d="M484.72,124.45a4.82,4.82,0,0,1-2.05-.45.59.59,0,0,1,.5-1.07,3.62,3.62,0,0,0,3.72-.38H487a.59.59,0,0,1,.82.12.6.6,0,0,1-.12.83h-.07A4.81,4.81,0,0,1,484.72,124.45Z" transform="translate(0 -77.7)"/><path class="cls-3" d="M476.76,160.07a.59.59,0,0,1-.57-.44l-.49-1.87a2.21,2.21,0,0,0-2.13-1.63.58.58,0,0,1-.58-.58h0a.6.6,0,0,1,.58-.59,3.39,3.39,0,0,1,3.27,2.51l.49,1.87a.6.6,0,0,1-.42.72Z" transform="translate(0 -77.7)"/><path class="cls-4" d="M609.91,448.13l1.41,14.38a7,7,0,0,0,7.57,6.28l6-.53a45.16,45.16,0,0,1,10.13.25l4.64.65a26.39,26.39,0,0,0,8.73-.24c6.66-1.31,15.61-2.64,25.93-7.63,4.56-2,2.24-7.89-2.42-6.14l4.66-1.75c5-1.73,3.74-8.63-1.3-6.94l1.08-.4c5.66-2.52,3.91-9-1.2-7.42l-2.74,1.05c2.86-1.94,2.58-7.53-2.62-6,0,0-12.81,3-27.46,4.76l5.9-4.72a8,8,0,0,0,3-7h0a1.53,1.53,0,0,0-1.68-1.38,1.37,1.37,0,0,0-.4.09l-13,4.94-2.37.93A22.21,22.21,0,0,0,627,435.4h0a20.54,20.54,0,0,1-10.78,5.07l-.4.06A7,7,0,0,0,609.91,448.13Z" transform="translate(0 -77.7)"/><path class="cls-2" d="M651.27,445.53a.7.7,0,0,1-.12-1.39A146.52,146.52,0,0,0,672.2,439a.71.71,0,0,1,.47,1.33h0a149.19,149.19,0,0,1-21.27,5.17Z" transform="translate(0 -77.7)"/><path class="cls-2" d="M656.26,452.18a.7.7,0,0,1-.17-1.38c13.51-3.48,18.95-5,19-5a.71.71,0,0,1,.87.49.71.71,0,0,1-.48.87h0c-.05,0-5.5,1.54-19,5A.5.5,0,0,1,656.26,452.18Z" transform="translate(0 -77.7)"/><path class="cls-2" d="M653.47,460.31a.68.68,0,0,1-.69-.61.71.71,0,0,1,.6-.79,108.91,108.91,0,0,0,18.32-4.42.68.68,0,0,1,.88.41v0a.7.7,0,0,1-.43.9,112,112,0,0,1-18.6,4.49Z" transform="translate(0 -77.7)"/><circle class="cls-5" cx="609.25" cy="400.38" r="2.01"/><path class="cls-5" d="M676.19,481.69a2,2,0,1,0,2,2A2,2,0,0,0,676.19,481.69Z" transform="translate(0 -77.7)"/><circle class="cls-5" cx="627.94" cy="353.6" r="4.37"/><circle class="cls-5" cx="686.21" cy="383.65" r="3.34"/><path class="cls-5" d="M676.27,459.61a8.6,8.6,0,0,0-8.16-8.59,11.21,11.21,0,0,0,.12-1.64,12,12,0,0,0-11.91-12,12.12,12.12,0,0,0-2.69.3,8.61,8.61,0,0,0-14.48.19,9.92,9.92,0,0,0-11.5,14.68,9.92,9.92,0,0,0-4.31,13A8.61,8.61,0,1,0,629,481a12,12,0,0,0,22.25-6.1v-.78a12.14,12.14,0,0,0,3.44-1,11.91,11.91,0,0,0,13.9-4.88A8.62,8.62,0,0,0,676.27,459.61Z" transform="translate(0 -77.7)"/><path class="cls-6" d="M664.5,451.68h-.17a.7.7,0,0,1-.51-.85h0A8.06,8.06,0,0,0,664,449a7.79,7.79,0,0,0-7.78-7.77.71.71,0,0,1,0-1.41A9.19,9.19,0,0,1,665.4,449a9.33,9.33,0,0,1-.26,2.17A.69.69,0,0,1,664.5,451.68Z" transform="translate(0 -77.7)"/><path class="cls-6" d="M639.31,484.55a.7.7,0,0,1-.7-.7h0a.7.7,0,0,1,.69-.71h0a7.73,7.73,0,0,0,4.7-1.57.7.7,0,1,1,.91,1.06l-.06.05A9,9,0,0,1,639.31,484.55Z" transform="translate(0 -77.7)"/><path class="cls-6" d="M629.84,444.93a.65.65,0,0,1-.31-.08.69.69,0,0,1-.32-.92v0a8.39,8.39,0,0,1,11.27-3.75,8.49,8.49,0,0,1,2,1.35.71.71,0,0,1-1,1,7,7,0,0,0-11,2A.69.69,0,0,1,629.84,444.93Z" transform="translate(0 -77.7)"/><path class="cls-4" d="M603.22,464.58l2.17-11.79a7,7,0,0,1,7.63-5.68l3.36.36a41.33,41.33,0,0,0,13.58-.79l.35-.08a34.53,34.53,0,0,1,11.86-.61l3.12.38a36.79,36.79,0,0,1,9,2.26l4.86,1.89a1.94,1.94,0,0,1,1.09,2.52,2.31,2.31,0,0,1-.28.48h0a6.31,6.31,0,0,1-5.33,2.35,86.22,86.22,0,0,0-11.59-.12s16.17,6.94,28.23,10c3.19.92,1.6,5.82-2.59,5.38h0c3.14,1,2.3,6.14-2.86,5.54l-1-.17c4,.7,1.7,6.27-2.79,5.67l-4.68-.52c3,.79,1.58,5.18-2.74,4.6,0,0-6.49,0-18.42-3.08a30.77,30.77,0,0,1-8.93-3.94h0a41.7,41.7,0,0,0-15.18-6l-3.18-.58A7,7,0,0,1,603.22,464.58Z" transform="translate(0 -77.7)"/><path class="cls-2" d="M668.63,471.87h-.14c-10.86-2.21-16-3.56-18.31-4.29a.71.71,0,0,1-.46-.88.7.7,0,0,1,.88-.46h0c2.33.72,7.37,2,18.17,4.25a.7.7,0,0,1,.58.81.71.71,0,0,1-.72.58Z" transform="translate(0 -77.7)"/><path class="cls-2" d="M664.78,477.24h0a91.52,91.52,0,0,1-18.93-3.42.71.71,0,1,1,.41-1.35,88.94,88.94,0,0,0,18.59,3.37.7.7,0,1,1,0,1.4Z" transform="translate(0 -77.7)"/><path class="cls-2" d="M657.3,482.39h-.09A81,81,0,0,1,645.48,480a.69.69,0,0,1-.48-.85h0a.71.71,0,0,1,.87-.49A78.17,78.17,0,0,0,657.39,481a.7.7,0,0,1,.61.78h0A.71.71,0,0,1,657.3,482.39Z" transform="translate(0 -77.7)"/><path class="cls-2" d="M621.46,448.42a69.64,69.64,0,0,1-8.54-.62.7.7,0,0,1,.19-1.39c.08,0,7.89,1.07,12.23.34a.7.7,0,0,1,.81.57h0a.7.7,0,0,1-.55.81h0A24.56,24.56,0,0,1,621.46,448.42Z" transform="translate(0 -77.7)"/><path class="cls-4" d="M673.87,311.19l.84,1a2.72,2.72,0,0,1-.31,3.81,3.84,3.84,0,0,1-.54.35,5.46,5.46,0,0,1-6.38-1.06l-.31-.31a2.22,2.22,0,0,1-.35,3.11,3.28,3.28,0,0,1-.31.2,6.31,6.31,0,0,1-3.12.81,6.43,6.43,0,0,1-4.57-1.91c-.49-.51-1-1-1.53-1.52a2.29,2.29,0,0,1,0,3.25,2.06,2.06,0,0,1-.43.35,5.83,5.83,0,0,1-7.36-.94l-1.36-1.45a3.08,3.08,0,0,1-.14,4.35,2.51,2.51,0,0,1-.31.26,4.13,4.13,0,0,1-5.44-.54,5.07,5.07,0,0,1-3.41-.27,2.48,2.48,0,0,1-1.22-3.29,2.57,2.57,0,0,1,.74-.93l-2.1,1.61a5,5,0,0,1-5.8.19,2.26,2.26,0,0,1-1-1.88,2.2,2.2,0,0,1,.86-1.76l-.47.37a6.22,6.22,0,0,1-8-.25,2,2,0,0,1-.24-2.82,2.27,2.27,0,0,1,.32-.3l.53-.43h0l-.25.22a7.55,7.55,0,0,1-6.77,1.43,2.54,2.54,0,0,1-1.75-1.65h0a7.23,7.23,0,0,1-7.23-7.23V289.09a7.24,7.24,0,0,1,7.17-7.23c9.87-.11,20-1.48,24.57-.2l.5-.44A13.43,13.43,0,0,1,653,279s1.53.53,3,1.2c6.66,3,14,2.23,22.34,1.71a7.25,7.25,0,0,1,7.69,6.76c0,.13,0,.26,0,.39l.14,15a7.21,7.21,0,0,1-7.12,7.3h-.17C677.18,311.38,675.46,311.31,673.87,311.19Z" transform="translate(0 -77.7)"/><path class="cls-2" d="M657.28,316.33a.71.71,0,0,1-.48-.19c-2.25-2.21-9.19-8.61-11.86-11a.68.68,0,0,1-.07-1l0,0a.68.68,0,0,1,1-.08l0,0c2.67,2.36,9.64,8.8,11.9,11a.69.69,0,0,1,0,1l0,0A.66.66,0,0,1,657.28,316.33Z" transform="translate(0 -77.7)"/><path class="cls-2" d="M667.49,316a.69.69,0,0,1-.51-.21c-3.38-3.49-7.37-7.17-12.17-11.24a.69.69,0,0,1-.19-1,.7.7,0,0,1,1-.2l.12.11c4.84,4.1,8.85,7.8,12.28,11.33a.72.72,0,0,1,0,1A.68.68,0,0,1,667.49,316Z" transform="translate(0 -77.7)"/><path class="cls-2" d="M674.71,312.87a.71.71,0,0,1-.53-.24l-.84-1a.7.7,0,0,1,.07-1h0a.68.68,0,0,1,1,.05l0,0,.84,1a.71.71,0,0,1-.08,1A.67.67,0,0,1,674.71,312.87Z" transform="translate(0 -77.7)"/><path class="cls-2" d="M673.87,311.89a.7.7,0,0,1-.51-.22,201.93,201.93,0,0,0-16.52-16.19.7.7,0,0,1,.77-1.17.58.58,0,0,1,.12.1,203.26,203.26,0,0,1,16.65,16.3.72.72,0,0,1,0,1A.73.73,0,0,1,673.87,311.89Z" transform="translate(0 -77.7)"/><path class="cls-2" d="M634.71,292.66a8.75,8.75,0,0,1-3.94-1,2.43,2.43,0,0,1-.51-4l8-7a.69.69,0,1,1,.92,1l-8,7a1,1,0,0,0-.35.92,1,1,0,0,0,.56.8,7.24,7.24,0,0,0,6.92-.17l3.43-1.95a7.84,7.84,0,0,1,8.25.24.7.7,0,0,1,.24.95l0,.05a.71.71,0,0,1-1,.21h0a6.44,6.44,0,0,0-6.79-.19l-3.42,2A8.75,8.75,0,0,1,634.71,292.66Z" transform="translate(0 -77.7)"/><path class="cls-2" d="M629.85,315.67a.7.7,0,0,1-.55-.27.68.68,0,0,1,.08-1l0,0,9.08-7.11a1.91,1.91,0,0,0,.33-2.67,2.09,2.09,0,0,0-.7-.55,6.29,6.29,0,0,0-6.64.8l-9.09,7.25a.68.68,0,0,1-1-.08l0,0a.7.7,0,0,1,.09-1h0l9.09-7.25a7.67,7.67,0,0,1,8.1-1,3.28,3.28,0,0,1,1.61,4.36,3.17,3.17,0,0,1-1,1.23l-9.08,7.11A.71.71,0,0,1,629.85,315.67Z" transform="translate(0 -77.7)"/><path class="cls-2" d="M638.85,316.75a.7.7,0,0,1-.55-.28.68.68,0,0,1,.08-1l0,0,6.05-4.67a1.46,1.46,0,0,0,.59-1.28,1.48,1.48,0,0,0-.73-1.2,4.75,4.75,0,0,0-5.32.33l-6.47,5.07a.71.71,0,0,1-1-.12h0a.68.68,0,0,1,.08-1l0,0,6.47-5.07a6.15,6.15,0,0,1,6.89-.43,2.9,2.9,0,0,1,1,4,2.78,2.78,0,0,1-.72.81l-6,4.66A.69.69,0,0,1,638.85,316.75Z" transform="translate(0 -77.7)"/><path class="cls-2" d="M644,320.79a.66.66,0,0,1-.56-.28.69.69,0,0,1,.1-1l0,0,3.31-2.48a1.47,1.47,0,0,0,.28-2.06,1.44,1.44,0,0,0-.33-.32,4.37,4.37,0,0,0-5.19.13L638.77,317a.7.7,0,0,1-1-1l.13-.1,2.84-2.19a5.78,5.78,0,0,1,6.84-.17,2.85,2.85,0,0,1,.08,4.64l-3.31,2.48A.64.64,0,0,1,644,320.79Z" transform="translate(0 -77.7)"/><path class="cls-2" d="M622.2,312.08a.69.69,0,0,1-.54-.25.71.71,0,0,1,.07-1h0l3.42-2.81a1.9,1.9,0,0,0-.32-3.14,6,6,0,0,0-6.74,1L614.83,309a.71.71,0,0,1-1-1l3.26-3.07a7.35,7.35,0,0,1,8.31-1.23,3.28,3.28,0,0,1,1.46,4.4,3.21,3.21,0,0,1-.84,1.06L622.6,312A.64.64,0,0,1,622.2,312.08Z" transform="translate(0 -77.7)"/><path class="cls-5" d="M681.35,298.5a1.39,1.39,0,0,1-1.39-1.28,30.31,30.31,0,0,0-.41-3.14,1.4,1.4,0,1,1,2.72-.68l0,.19c.2,1.13.35,2.27.44,3.4a1.4,1.4,0,0,1-1.27,1.5Z" transform="translate(0 -77.7)"/><path class="cls-5" d="M646.39,336.46a36.45,36.45,0,1,1,31.48-54.9,1.39,1.39,0,1,1-2.4,1.41,33.7,33.7,0,1,0-5.26,40.85,33.62,33.62,0,0,0,9.34-17.89,1.4,1.4,0,0,1,2.75.48,36.46,36.46,0,0,1-35.91,30Z" transform="translate(0 -77.7)"/><path class="cls-5" d="M621.58,326.2a1.4,1.4,0,0,1-1.4-1.4,1.38,1.38,0,0,1,.4-1l49.61-49.61a1.41,1.41,0,0,1,2,2l-49.61,49.61A1.42,1.42,0,0,1,621.58,326.2Z" transform="translate(0 -77.7)"/><path class="cls-5" d="M622.3,127.36a70.18,70.18,0,0,1-.17,26.32,4.47,4.47,0,0,0,1.26,4.12c10.85,10.57,24.06,16.31,39,18a13.09,13.09,0,0,0,9.13-2.4,49.34,49.34,0,0,0,11.34-11.14s6.61-20,0-40.18c0,0-6.93-6-14.73-8.85a12.66,12.66,0,0,0-4.6-.71c-5.46.13-19.66,1.39-38.72,10.07A4.4,4.4,0,0,0,622.3,127.36Z" transform="translate(0 -77.7)"/><path class="cls-6" d="M625.35,155.8h-.24l-11.43-3.67a9.77,9.77,0,0,1-6.82-9.34v-14a7.35,7.35,0,0,1,9.86-6.9l10,3.65a.79.79,0,1,1-.43,1.52l-.11,0-10-3.64a5.76,5.76,0,0,0-7.74,5.41v13.93a8.19,8.19,0,0,0,5.72,7.83l11.43,3.67a.79.79,0,0,1,.55,1A.8.8,0,0,1,625.35,155.8Z" transform="translate(0 -77.7)"/><path class="cls-6" d="M680.22,134.05h-.11L669,132.53l-35.69.94a.78.78,0,0,1-.81-.75v0a.79.79,0,0,1,.77-.81h0L669,131h.12l11.19,1.52a.78.78,0,0,1,.68.87v0A.78.78,0,0,1,680.22,134.05Z" transform="translate(0 -77.7)"/><path class="cls-6" d="M669.63,151.2h0a77.85,77.85,0,0,1-8.62-.71.79.79,0,0,1-.68-.89.78.78,0,0,1,.88-.68h0a76.31,76.31,0,0,0,8.4.7A38.48,38.48,0,0,0,680,147.45a.79.79,0,0,1,.53,1.49h0a40.46,40.46,0,0,1-10.77,2.26Z" transform="translate(0 -77.7)"/><path class="cls-6" d="M668.58,166.61h0C654.83,166,640,160,631.52,155a.78.78,0,0,1-.28-1.08.79.79,0,0,1,1.08-.29c8.32,4.87,22.77,10.76,36.16,11.37a32.86,32.86,0,0,0,9.6-4.75.79.79,0,1,1,.95,1.27,34.88,34.88,0,0,1-10.21,5Z" transform="translate(0 -77.7)"/><path class="cls-6" d="M632.53,125.61a.79.79,0,0,1-.75-.57.78.78,0,0,1,.49-1h0c.93-.28,23-6.82,35.05-6.45a.67.67,0,0,1,.2,0c.37.1,9.28,2.67,12.57,5.44a.79.79,0,0,1,.1,1.11.8.8,0,0,1-1.12.1c-2.86-2.41-10.93-4.82-11.89-5.11-11.8-.32-34.24,6.33-34.46,6.39A.5.5,0,0,1,632.53,125.61Z" transform="translate(0 -77.7)"/><path class="cls-6" d="M648,156c-4.45,0-8.07-4-8.07-8.91s3.62-8.92,8.07-8.92,8.07,4,8.07,8.92S652.45,156,648,156Zm0-16.25c-3.58,0-6.49,3.29-6.49,7.34s2.91,7.33,6.49,7.33,6.49-3.29,6.49-7.33-2.91-7.39-6.49-7.39Z" transform="translate(0 -77.7)"/><path class="cls-6" d="M652.2,146.13a.78.78,0,0,1-.75-.55,4.1,4.1,0,0,0-1.32-2,.79.79,0,0,1,1-1.23,5.83,5.83,0,0,1,1.82,2.7.79.79,0,0,1-.5,1h0A.73.73,0,0,1,652.2,146.13Z" transform="translate(0 -77.7)"/><path class="cls-6" d="M650.22,152.15a.76.76,0,0,1-.66-.36.78.78,0,0,1,.22-1.08h0a4.11,4.11,0,0,0,1.69-2.35.79.79,0,0,1,1.53.4v0a5.75,5.75,0,0,1-2.36,3.25A.82.82,0,0,1,650.22,152.15Z" transform="translate(0 -77.7)"/><path class="cls-4" d="M520.87,292.45a14.36,14.36,0,0,0-14.14-11.93h-.45A12.58,12.58,0,0,0,484.33,276a17.42,17.42,0,0,0-22,27,17.41,17.41,0,0,0,27.44,19.6,14.34,14.34,0,0,0,20.15-2.31c.26-.34.51-.68.75-1a14.36,14.36,0,1,0,10.16-26.8Z" transform="translate(0 -77.7)"/><circle class="cls-2" cx="479.66" cy="213.41" r="4.34"/><circle class="cls-2" cx="504.43" cy="227.59" r="4.34"/><circle class="cls-2" cx="451.78" cy="225.64" r="2.39"/><circle class="cls-2" cx="489.76" cy="252.51" r="2.39"/><circle class="cls-2" cx="511.36" cy="275.46" r="2.59" transform="translate(157.55 658.39) rotate(-80.78)"/><circle class="cls-2" cx="479.66" cy="231.93" r="3.23"/><circle class="cls-2" cx="495.95" cy="200.36" r="1.57"/><path class="cls-2" d="M459.73,290.57a.79.79,0,0,1-.79-.79h0a14.62,14.62,0,0,1,14.6-14.6A14.34,14.34,0,0,1,480,276.7a.77.77,0,0,1,.36,1h0a.8.8,0,0,1-1.06.36,13,13,0,0,0-18.79,11.67A.8.8,0,0,1,459.73,290.57Z" transform="translate(0 -77.7)"/><path class="cls-2" d="M516.35,317.14a.79.79,0,0,1,0-1.58,10,10,0,0,0,1.81-.17.79.79,0,1,1,.39,1.53l-.1,0A11.4,11.4,0,0,1,516.35,317.14Z" transform="translate(0 -77.7)"/><path class="cls-2" d="M522.36,315.27a.79.79,0,0,1-.79-.79.8.8,0,0,1,.34-.65,9.92,9.92,0,0,0,3.74-4.93.79.79,0,0,1,1.49.51,11.43,11.43,0,0,1-4.34,5.72A.77.77,0,0,1,522.36,315.27Z" transform="translate(0 -77.7)"/><path class="cls-4" d="M532.66,461.54a5,5,0,1,0-7.56-4.33v.19H508.43c-1.86,0-3.37,1.85-3.37,4.14s1.51,4.14,3.37,4.14h16.68v.19a5,5,0,1,0,7.56-4.33Z" transform="translate(0 -77.7)"/><ellipse class="cls-2" cx="472.52" cy="383.84" rx="16.74" ry="20.57"/><path class="cls-2" d="M472.52,441v41.14c19.19,1.32,35.94-3.72,42.4-14.42a11.87,11.87,0,0,0,0-12.3C508.46,444.68,491.71,439.65,472.52,441Z" transform="translate(0 -77.7)"/><ellipse class="cls-3" cx="472.52" cy="383.84" rx="14.69" ry="18.04"/><path class="cls-3" d="M493.21,462.3a.76.76,0,0,1-.75-.76c0-10.92-7.17-19.81-16-19.81a.76.76,0,0,1-.75-.75h0a.74.74,0,0,1,.73-.75h0c9.65,0,17.5,9.56,17.5,21.32A.76.76,0,0,1,493.21,462.3Z" transform="translate(0 -77.7)"/><path class="cls-3" d="M500.35,462.3a.76.76,0,0,1-.76-.76h0c0-8.72-4.72-16.54-11.47-19a.77.77,0,0,1-.45-1h0a.76.76,0,0,1,1-.46h0c7.34,2.68,12.47,11.08,12.47,20.43a.76.76,0,0,1-.74.78Z" transform="translate(0 -77.7)"/><path class="cls-3" d="M507.48,462.3a.76.76,0,0,1-.76-.76h0c0-6.65-2.67-12.82-7.16-16.51a.77.77,0,0,1-.08-1.09.76.76,0,0,1,1.08-.08h0c4.83,4,7.71,10.58,7.71,17.68a.76.76,0,0,1-.76.76Z" transform="translate(0 -77.7)"/><ellipse class="cls-4" cx="472.52" cy="383.84" rx="3.8" ry="4.67"/><circle class="cls-3" cx="497.38" cy="392.21" r="4.17"/><circle class="cls-2" cx="487.84" cy="354.42" r="4.17"/><circle class="cls-2" cx="451.32" cy="404.16" r="2.3"/><circle class="cls-2" cx="517.81" cy="370.31" r="2.3"/><circle class="cls-2" cx="449.03" cy="390.84" r="3.81"/><circle class="cls-3" cx="489.31" cy="399.02" r="2.65"/><circle class="cls-2" cx="471.32" cy="354.42" r="1.5"/><path class="cls-4" d="M249.79,323.66l-7.29-20-3.34-4.23a14.55,14.55,0,0,1-3-10.39h0a3.11,3.11,0,0,1,3.38-2.8l.21,0,1.52.25-.39-3.56a7.8,7.8,0,0,1,2-6.1h0a7.83,7.83,0,0,1,6-2.59l15.06.38a6.5,6.5,0,0,1,6,4.49l9.24,28.34a2,2,0,0,1-.92,2.39l-25.46,14.8a2,2,0,0,1-2.78-.54A2.56,2.56,0,0,1,249.79,323.66Z" transform="translate(0 -77.7)"/><path class="cls-2" d="M248.49,296.83H248l-3.57-.4a.8.8,0,0,1-.7-.88.8.8,0,0,1,.88-.69h0l3.57.4a2.8,2.8,0,0,0,2.34-4.73,2.76,2.76,0,0,0-1.23-.75L241,287.33a.78.78,0,0,1-.54-1v0a.79.79,0,0,1,1-.55h0l8.26,2.42a4.39,4.39,0,0,1-.87,8.59h-.35Z" transform="translate(0 -77.7)"/><path class="cls-2" d="M265.56,297a3.82,3.82,0,0,1-3.8-3.59l-.6-10a.79.79,0,0,1,1.58-.1l.6,10a2.22,2.22,0,0,0,2.34,2.09h0a2.22,2.22,0,0,0,2.09-2.34v0l-.41-6.1a.79.79,0,0,1,1.56-.25.66.66,0,0,1,0,.14l.41,6.1a3.82,3.82,0,0,1-3.54,4.08h-.26Z" transform="translate(0 -77.7)"/><path class="cls-2" d="M259.22,297.8a4.13,4.13,0,0,1-4.12-3.71l-1.18-11.64a.78.78,0,0,1,.68-.87h0a.79.79,0,0,1,.87.7h0l1.18,11.64a2.56,2.56,0,0,0,2.81,2.28,2.53,2.53,0,0,0,1.6-.79,2.49,2.49,0,0,0,.69-1.9l-.41-6.9a.79.79,0,1,1,1.58-.1l.41,6.9a4.12,4.12,0,0,1-3.85,4.37Z" transform="translate(0 -77.7)"/><path class="cls-2" d="M248.12,289.38a.79.79,0,0,1-.78-.68l-.93-6.86a.78.78,0,0,1,.65-.88h0a.79.79,0,0,1,.89.67l.93,6.85a.79.79,0,0,1-.65.89h-.13Z" transform="translate(0 -77.7)"/><path class="cls-2" d="M252.42,298.58a4.27,4.27,0,0,1-3.61-2,.8.8,0,0,1,.24-1.09.79.79,0,0,1,1.09.24,2.7,2.7,0,0,0,5-1.72L254,282.43a.78.78,0,0,1,.68-.87h0a.79.79,0,0,1,.87.7h0l1.18,11.58a4.28,4.28,0,0,1-3.83,4.69l-.42,0Z" transform="translate(0 -77.7)"/><path class="cls-5" d="M107.34,313.2l121.74,1.2c7.59,12.47,14.35,129,10.55,197.17-12.29,13.32-119.12,15.26-137.58,0C99,445.43,100,378,107.34,313.2Z" transform="translate(0 -77.7)"/><path class="cls-5" d="M224.29,313.2a106.51,106.51,0,0,1,16,9.24s25-11.76,38.26-21c0,0,27.81,84.1,18.28,103.84s-46.66,16.57-72.57-27.91Z" transform="translate(0 -77.7)"/><path class="cls-4" d="M148.83,460.68a69.26,69.26,0,0,1-18.09,20.76L108.92,459l22.26-17.61Z" transform="translate(0 -77.7)"/><polygon class="cls-4" points="188.46 221.25 188.46 238.41 146.65 238.41 146.65 184.45 164.35 184.45 188.46 221.25"/><path class="cls-2" d="M155.86,313.29h16.79c9.9-.05,16.22-3,15.81-12.94v-9.83c13.4,0,37.31,9.11,40.59,24,1.89,8.55-2.81,39.64-73.19,34.58Z" transform="translate(0 -77.7)"/><path class="cls-3" d="M188,344.16a.76.76,0,1,1-.11-1.52c11.68-1.64,32.12-6.79,37.86-22.82a.77.77,0,0,1,1-.47h0a.76.76,0,0,1,.47,1v0c-6,16.79-27.06,22.13-39.08,23.82Z" transform="translate(0 -77.7)"/><path class="cls-7" d="M205.93,229.66c1.78,3.66,1.39,14.72-3.85,16.71l-2.12-17Z" transform="translate(0 -77.7)"/><path class="cls-4" d="M187.1,293.42h-6.71c-18.64,0-33.75-25.5-33.75-44.13V219l53.28,2.65c4.31,12.59,4.31,26.12,3.76,46C206.2,280.84,200,293.42,187.1,293.42Z" transform="translate(0 -77.7)"/><path class="cls-7" d="M161.76,226.61s7.89,7.41,27.76,4.1c0,0,29.87,10.45,37.08-11.67,7.39-22.71-20.23-39.21-35.46-20.3,0,0-46.89-12.22-49.1,14.21,0,0-22.72,4.82-3.31,36.37a49.69,49.69,0,0,0,7.91,28.56v-16c0,24.57,10.39,40.4,39.15,38.7,12.79-.76,20.27-6.55,20.46-21.22a29.39,29.39,0,0,0-2.57-11.71c-.26,11.81-4.44,17.78-14.31,17.94s-15.6-.29-20.67-11c-6-12.63-14.67-5.7-14.67-16.11V241A14.55,14.55,0,0,0,161.76,226.61Z" transform="translate(0 -77.7)"/><path class="cls-2" d="M186.67,277a.8.8,0,0,1-.79-.75c-.3-5.61-6.18-8.13-6.23-8.15a.79.79,0,0,1,.6-1.46c.28.11,6.86,2.91,7.21,9.53a.81.81,0,0,1-.75.83Z" transform="translate(0 -77.7)"/><path class="cls-2" d="M186.94,262.18a12.73,12.73,0,0,1-3.37-.39.79.79,0,1,1,.44-1.52h0a16.75,16.75,0,0,0,5.65.16c-.53-8.11-4.58-19.63-4.62-19.75a.79.79,0,0,1,.37-1.05.8.8,0,0,1,1.06.37.88.88,0,0,1,.05.15c.18.51,4.43,12.57,4.76,20.94a.79.79,0,0,1-.67.81A25,25,0,0,1,186.94,262.18Z" transform="translate(0 -77.7)"/><path class="cls-8" d="M189.3,210.19a.79.79,0,0,1-.74-.59,14.9,14.9,0,0,1,4-13.83,20.93,20.93,0,0,1,13.14-6,.75.75,0,0,1,.81.69h0a.76.76,0,0,1-.71.81h0a19.47,19.47,0,0,0-12.21,5.55A13.31,13.31,0,0,0,190,209.25a.76.76,0,0,1-.56.92h0Z" transform="translate(0 -77.7)"/><path class="cls-2" d="M215.47,269.05l5.86-2.43a.85.85,0,0,1,1.11.47.81.81,0,0,1,.06.31v1.53l5.57-1.09a1.09,1.09,0,0,1,1.27.87,1.06,1.06,0,0,1-.09.68l-1.2,2.4a1.09,1.09,0,0,1-.89.59l-6.29.5a.84.84,0,0,1-.91-.77v-2.58l-4.23.44a.48.48,0,0,1-.26-.92Z" transform="translate(0 -77.7)"/><path class="cls-2" d="M214.08,276.2l5.81,3.07a.84.84,0,0,1,.33,1.14.87.87,0,0,1-.33.33l-.87.52,4,2.88a1.09,1.09,0,0,1,.27,1.52,1,1,0,0,1-.27.27l-1.92,1.25a1.07,1.07,0,0,1-1.35-.14l-5.52-5.45a.85.85,0,0,1,0-1.19,1.09,1.09,0,0,1,.17-.13l1.49-.91L213.52,277a.49.49,0,1,1,.56-.8Z" transform="translate(0 -77.7)"/><path class="cls-4" d="M134.64,243.2c0-10.4,10-9.06,12-5.08V256C141.18,256.6,134.64,251.86,134.64,243.2Z" transform="translate(0 -77.7)"/><path class="cls-2" d="M138.46,246.14a.79.79,0,0,1-.76-.58c-.73-2.52-.34-5.07,1-6.49a3.46,3.46,0,0,1,3.39-1,.79.79,0,0,1-.33,1.55,1.87,1.87,0,0,0-1.91.54c-.93,1-1.18,3-.62,5a.79.79,0,0,1-.51,1h0A.58.58,0,0,1,138.46,246.14Z" transform="translate(0 -77.7)"/><path class="cls-2" d="M107.34,313.2s-1.59-6.38,7.12-12.48c8.16-5.71,21.74-9.88,32.19-10.2v10.2c8.22,6.62,28.79,19.25,28.79,62.92v51.94c-11.36,5-35.7,4.42-44.55,0v-50.2C130.89,354.12,130.57,323.49,107.34,313.2Z" transform="translate(0 -77.7)"/><path class="cls-3" d="M135.54,348.4a.77.77,0,0,1-.76-.68c-1.86-16.65-7.77-28.4-17.56-34.93a.76.76,0,0,1-.22-1.05.77.77,0,0,1,1.06-.21c10.19,6.79,16.32,18.91,18.23,36a.75.75,0,0,1-.66.83h0Z" transform="translate(0 -77.7)"/><path class="cls-3" d="M136.2,362.38a.76.76,0,0,1-.76-.76h0c0-1.74,0-3.64-.08-5.76a.78.78,0,0,1,.74-.79.77.77,0,0,1,.78.74c.07,2.14.08,4.06.08,5.81a.76.76,0,0,1-.76.76Z" transform="translate(0 -77.7)"/><path class="cls-5" d="M107.34,313.2c-19.4,4.75-44,50.26-47.24,86.94,0,21,30.1,58.29,43.71,71.8,0,0,23.77-17,31-27.85-9-11.21-22.24-28.3-29.52-41.15l19-33S128.31,328.24,107.34,313.2Z" transform="translate(0 -77.7)"/><path class="cls-6" d="M134.78,444.85a.77.77,0,0,1-.6-.29c-1-1.25-23.88-30.82-29.59-41.25a.75.75,0,0,1,0-.74l7.5-13.08a.76.76,0,0,1,1.32.75L106.13,403c6,10.66,29,40.38,29.25,40.68a.75.75,0,0,1-.12,1.05h0A.72.72,0,0,1,134.78,444.85Z" transform="translate(0 -77.7)"/><path class="cls-6" d="M95.91,464.85a.76.76,0,0,1-.77-.75.77.77,0,0,1,.35-.65A224.71,224.71,0,0,0,117,446.81a.76.76,0,0,1,1.07.06A.77.77,0,0,1,118,448,229.93,229.93,0,0,1,96.3,464.72.79.79,0,0,1,95.91,464.85Z" transform="translate(0 -77.7)"/><path class="cls-6" d="M120.19,488.62a.76.76,0,0,1-.74-.78.74.74,0,0,1,.46-.68,52.62,52.62,0,0,0,10.37-6.33,67.6,67.6,0,0,0,17.88-20.53,69.86,69.86,0,0,0,4.39-9.25.79.79,0,0,1,.58-.48c14.67-2.64,51.31-2.63,61.25,0a.75.75,0,0,1,.54.56c.05.22,5,21.46,15.78,31.1a.76.76,0,0,1-1,1.14c-4.71-4.2-8.88-10.84-12.39-19.76a95.8,95.8,0,0,1-3.75-11.69c-10.11-2.42-45.46-2.4-59.74.05A72.28,72.28,0,0,1,149.5,461a69.27,69.27,0,0,1-18.29,21,53.35,53.35,0,0,1-10.72,6.53A.8.8,0,0,1,120.19,488.62Z" transform="translate(0 -77.7)"/><path class="cls-6" d="M222.47,502.63a.76.76,0,0,1-.18-1.5,63.65,63.65,0,0,0,12.65-4.41.76.76,0,0,1,.77,1.31l-.1.05a65,65,0,0,1-13,4.52A.35.35,0,0,1,222.47,502.63Z" transform="translate(0 -77.7)"/><path class="cls-6" d="M175.28,507.08c-19.29,0-35-1.51-35.24-1.53a.76.76,0,0,1-.68-.83.78.78,0,0,1,.83-.69c.38,0,38.06,3.66,68.41-.38a.76.76,0,1,1,.2,1.51h0A260.81,260.81,0,0,1,175.28,507.08Z" transform="translate(0 -77.7)"/><path class="cls-6" d="M255.65,376.19a.8.8,0,0,1-.71-.49l-19.83-51.16a.77.77,0,0,1,.41-1c5.57-2.36,13.7-6.41,21.65-10.43a.76.76,0,0,1,.69,1.35c-7.67,3.88-15.49,7.78-21.07,10.19l19.57,50.48a.77.77,0,0,1-.44,1h0A1.31,1.31,0,0,1,255.65,376.19Z" transform="translate(0 -77.7)"/><path class="cls-6" d="M253.66,329.25a.76.76,0,0,1-.75-.77.77.77,0,0,1,.42-.67c10-5,27.88-16.64,28.06-16.75a.75.75,0,0,1,1.06.16.76.76,0,0,1-.15,1.06l-.08.05c-.18.11-18.11,11.83-28.22,16.84A.81.81,0,0,1,253.66,329.25Z" transform="translate(0 -77.7)"/><path class="cls-6" d="M236.38,395.2a.77.77,0,0,1-.76-.72c0-.19-1.06-19.64-1.55-30a.77.77,0,0,1,.72-.8.78.78,0,0,1,.8.73c.49,10.31,1.54,29.75,1.55,29.95a.76.76,0,0,1-.72.8h0Z" transform="translate(0 -77.7)"/><path class="cls-3" d="M175.44,364.4a.76.76,0,0,1-.76-.76h0c0-40.22-17.3-53.62-26.59-60.82-.69-.54-1.34-1-1.92-1.51a.76.76,0,0,1-.12-1.07h0a.77.77,0,0,1,1.07-.11c.58.46,1.21,1,1.9,1.49,9.5,7.36,27.18,21.05,27.18,62a.76.76,0,0,1-.74.78Z" transform="translate(0 -77.7)"/><path class="cls-8" d="M145.61,215.44h0a.76.76,0,0,1-.76-.76c0-.12.11-11.72,9.36-12.87a.77.77,0,0,1,.85.66.76.76,0,0,1-.66.85h0c-3.29.41-5.64,2.41-7,5.94a17.33,17.33,0,0,0-1.06,5.42A.76.76,0,0,1,145.61,215.44Z" transform="translate(0 -77.7)"/><path class="cls-3" d="M153,412.43c-1.06,0-2.14,0-3.23-.06a.77.77,0,0,1-.73-.79.75.75,0,0,1,.77-.73h0a97,97,0,0,0,25.42-2.56.76.76,0,0,1,.39,1.47h0A99.24,99.24,0,0,1,153,412.43Z" transform="translate(0 -77.7)"/><path class="cls-5" d="M160.9,257.54a50,50,0,0,1-.12,18.81,3.16,3.16,0,0,0,.9,2.94,46.05,46.05,0,0,0,27.86,12.84,9.39,9.39,0,0,0,6.53-1.71,35.19,35.19,0,0,0,8.11-8s4.72-14.29,0-28.71a39.21,39.21,0,0,0-10.53-6.33,9.21,9.21,0,0,0-3.29-.51c-3.9.09-14.05,1-27.67,7.2A3.15,3.15,0,0,0,160.9,257.54Z" transform="translate(0 -77.7)"/><path class="cls-5" d="M163.08,278a.69.69,0,0,1-.45-.16l-14.92-12.19a.72.72,0,0,1-.11-1,.71.71,0,0,1,1-.1h0l14.92,12.19a.72.72,0,0,1,.11,1A.74.74,0,0,1,163.08,278Z" transform="translate(0 -77.7)"/><path class="cls-5" d="M163.87,257.51a.72.72,0,0,1-.59-.31L148.89,237a.72.72,0,0,1,.17-1,.71.71,0,0,1,1,.16h0l14.39,20.24a.71.71,0,0,1-.16,1h0A.74.74,0,0,1,163.87,257.51Z" transform="translate(0 -77.7)"/><path class="cls-6" d="M202.29,262.47h-.1l-7.94-1.07-25.49.67a.72.72,0,1,1,0-1.44l25.55-.67h.12l8,1.08a.72.72,0,0,1-.09,1.43Z" transform="translate(0 -77.7)"/><path class="cls-6" d="M194.72,274.73h0a58.07,58.07,0,0,1-6.18-.51.72.72,0,0,1-.62-.8.7.7,0,0,1,.77-.62h0a57.31,57.31,0,0,0,6,.49,27.28,27.28,0,0,0,7.36-1.54.72.72,0,0,1,.48,1.36,29.33,29.33,0,0,1-7.74,1.62Z" transform="translate(0 -77.7)"/><path class="cls-6" d="M194,285.74h0c-9.82-.42-20.43-4.73-26.53-8.3a.72.72,0,0,1,.73-1.24c5.93,3.47,16.21,7.66,25.74,8.1a23,23,0,0,0,6.79-3.36.72.72,0,0,1,.86,1.15,24.64,24.64,0,0,1-7.34,3.62A1.07,1.07,0,0,1,194,285.74Z" transform="translate(0 -77.7)"/><path class="cls-6" d="M168.21,256.44A.73.73,0,1,1,168,255h0c.67-.2,16.48-4.87,25.1-4.61h.17c.27.08,6.67,1.92,9,3.92a.71.71,0,1,1-.91,1.09c-2-1.69-7.67-3.39-8.43-3.61-8.42-.21-24.39,4.51-24.55,4.56Z" transform="translate(0 -77.7)"/><path class="cls-6" d="M179.26,278.12c-3.26,0-5.91-2.92-5.91-6.52s2.65-6.53,5.91-6.53,5.92,2.93,5.92,6.53S182.53,278.12,179.26,278.12Zm0-11.61c-2.47,0-4.48,2.28-4.48,5.09s2,5.09,4.48,5.09,4.49-2.28,4.49-5.09S181.74,266.51,179.26,266.51Z" transform="translate(0 -77.7)"/><path class="cls-6" d="M182.27,271.1a.72.72,0,0,1-.69-.49,2.84,2.84,0,0,0-.89-1.34.71.71,0,0,1,.9-1.1,4.3,4.3,0,0,1,1.35,2,.72.72,0,0,1-.46.91h0A.75.75,0,0,1,182.27,271.1Z" transform="translate(0 -77.7)"/><path class="cls-6" d="M180.85,275.41a.73.73,0,0,1-.6-.33.7.7,0,0,1,.2-1l0,0a2.86,2.86,0,0,0,1.15-1.6.71.71,0,0,1,.88-.49h0a.72.72,0,0,1,.49.89,4.17,4.17,0,0,1-1.75,2.4A.68.68,0,0,1,180.85,275.41Z" transform="translate(0 -77.7)"/><g class="cls-9"><text class="cls-10" transform="translate(229.06 20.06)">F</text><text class="cls-10" transform="translate(240.35 20.06)">r</text><text class="cls-10" transform="translate(248.2 20.06)">ee</text></g></svg>